<svg xmlns="http://www.w3.org/2000/svg" width="24" height="24" viewBox="0 0 24 24"><path d="M12 2c5.514 0 10 4.486 10 10s-4.486 10-10 10S2 17.514 2 12 6.486 2 12 2zm0-2C5.373 0 0 5.373 0 12s5.373 12 12 12 12-5.373 12-12S18.627 0 12 0zM9.5 11.5v1.2h1.985c-.08.514-.601 1.51-1.985 1.51-1.194 0-2.17-.99-2.17-2.21s.976-2.21 2.17-2.21c.681 0 1.135.29 1.396.541l.949-.916A3.357 3.357 0 0 0 9.5 8.5C7.564 8.5 6 10.065 6 12s1.564 3.5 3.5 3.5c2.02 0 3.359-1.419 3.359-3.419 0-.23-.024-.405-.055-.58H9.5zm0 0l8.5 1h-1.5V14h-1v-1.5H14v-1h1.5V10h1v1.5H18v1z"/></svg>