<svg xmlns="http://www.w3.org/2000/svg" width="24" height="24" viewBox="0 0 24 24"><path d="M12 2c5.514 0 10 4.486 10 10s-4.486 10-10 10S2 17.514 2 12 6.486 2 12 2zm0-2C5.373 0 0 5.373 0 12s5.373 12 12 12 12-5.373 12-12S18.627 0 12 0zm4.615 6h-9.23C6.619 6 6 6.62 6 7.384v9.23C6 17.38 6.619 18 7.385 18h9.23c.766 0 1.385-.62 1.385-1.385v-9.23C18 6.62 17.381 6 16.615 6zM12 9.693a2.308 2.308 0 1 1 .002 4.616A2.308 2.308 0 0 1 12 9.693zm4.5 6.346a.461.461 0 0 1-.461.461H7.961a.462.462 0 0 1-.461-.461V11h.949a3.708 3.708 0 0 0-.14 1 3.691 3.691 0 1 0 7.382 0c0-.174-.015-.346-.039-.514A3.708 3.708 0 0 0 15.55 11h.95v5.039zm0-6.991a.462.462 0 0 1-.461.462h-1.088a.461.461 0 0 1-.461-.462V7.961a.46.46 0 0 1 .461-.461h1.088c.254 0 .461.207.461.461v1.087z"/></svg>