<svg aria-hidden="true" style="position:absolute;width:0;height:0" xmlns="http://www.w3.org/2000/svg" overflow="hidden"><defs><symbol id="star" viewBox="0 0 32 32"><path d="M16 .384l3.777 11.624H32l-9.889 7.185 3.777 11.624L16 23.633l-9.889 7.184 3.777-11.624L0 12.008h12.223z"/></symbol><symbol id="folder-open" viewBox="0 0 32 32"><path d="M10.629 2.667H1.333l.952 6.667H4.98l-.572-4h4.925c1.483 1.851 2.603 2.667 5.703 2.667h12.377l-.267 1.333h2.72l.8-4H15.035c-2.637 0-2.721-.556-4.407-2.667zM32 12H0l2.667 17.333h26.667L32.001 12z"/></symbol><symbol id="folder-close" viewBox="0 0 32 32"><path d="M2.667 12L1.334 2.667h7.592c1.687 2.111 1.769 2.667 4.408 2.667h17.333l-1.333 6.667h-5.591l-5.2-4-1.952 2.537 1.904 1.463h-2.628l-5.2-4-3.076 4H2.667zM0 14.667l2.667 14.667h26.667l2.667-14.667h-32z"/></symbol></defs></svg>