<svg aria-hidden="true" style="position:absolute;width:0;height:0" xmlns="http://www.w3.org/2000/svg" overflow="hidden"><defs><symbol id="facebook" viewBox="0 0 32 32"><path d="M16 2.667c7.352 0 13.333 5.981 13.333 13.333S23.352 29.333 16 29.333 2.667 23.352 2.667 16 8.648 2.667 16 2.667zM16 0C7.164 0 0 7.164 0 16s7.164 16 16 16 16-7.164 16-16S24.836 0 16 0zm-2.667 13.333h-2.667V16h2.667v8h4v-8h2.427l.24-2.667h-2.667v-1.111c0-.637.128-.889.744-.889H20V8h-3.205c-2.397 0-3.461 1.056-3.461 3.077v2.256z"/></symbol><symbol id="google" viewBox="0 0 32 32"><path d="M16 2.667c7.352 0 13.333 5.981 13.333 13.333S23.352 29.333 16 29.333 2.667 23.352 2.667 16 8.648 2.667 16 2.667zM16 0C7.164 0 0 7.164 0 16s7.164 16 16 16 16-7.164 16-16S24.836 0 16 0zm-3.333 15.333v1.6h2.647c-.107.685-.801 2.013-2.647 2.013-1.592 0-2.893-1.32-2.893-2.947s1.301-2.947 2.893-2.947c.908 0 1.513.387 1.861.721l1.265-1.221c-.813-.76-1.868-1.22-3.127-1.22-2.581 0-4.667 2.087-4.667 4.667s2.085 4.667 4.667 4.667c2.693 0 4.479-1.892 4.479-4.559 0-.307-.032-.54-.073-.773h-4.405zm0 0L24 16.666h-2v2h-1.333v-2h-2v-1.333h2v-2H22v2h2v1.333z"/></symbol><symbol id="instagram" viewBox="0 0 32 32"><path d="M16 2.667c7.352 0 13.333 5.981 13.333 13.333S23.352 29.333 16 29.333 2.667 23.352 2.667 16 8.648 2.667 16 2.667zM16 0C7.164 0 0 7.164 0 16s7.164 16 16 16 16-7.164 16-16S24.836 0 16 0zm6.153 8H9.846a1.846 1.846 0 0 0-1.847 1.845v12.307c0 1.021.825 1.848 1.847 1.848h12.307A1.846 1.846 0 0 0 24 22.153V9.846c0-1.02-.825-1.847-1.847-1.847zM16 12.924A3.078 3.078 0 0 1 19.079 16a3.078 3.078 0 0 1-6.155 0A3.076 3.076 0 0 1 16 12.924zm6 8.461c0 .34-.276.615-.615.615H10.614a.616.616 0 0 1-.615-.615v-6.719h1.265a4.966 4.966 0 0 0-.187 1.333 4.922 4.922 0 1 0 9.842 0c0-.232-.02-.461-.052-.685a4.966 4.966 0 0 0-.136-.648h1.267v6.719zm0-9.321c0 .34-.276.616-.615.616h-1.451a.615.615 0 0 1-.615-.616v-1.449c0-.34.273-.615.615-.615h1.451c.339 0 .615.276.615.615v1.449z"/></symbol><symbol id="youtube" viewBox="0 0 32 32"><path d="M21.64 9.469c-2.669-.181-8.616-.18-11.281 0C7.472 9.666 7.134 11.41 7.111 16c.023 4.581.36 6.333 3.249 6.531 2.665.18 8.612.181 11.281 0 2.887-.197 3.227-1.943 3.249-6.531-.024-4.581-.361-6.333-3.251-6.531zm-8.307 9.494v-5.925l6.371 2.957-6.371 2.968zM16 2.667c7.352 0 13.333 5.981 13.333 13.333S23.352 29.333 16 29.333 2.667 23.352 2.667 16 8.648 2.667 16 2.667zM16 0C7.164 0 0 7.164 0 16s7.164 16 16 16 16-7.164 16-16S24.836 0 16 0z"/></symbol></defs></svg>