<svg xmlns="http://www.w3.org/2000/svg" style="display: none;"><symbol id="bookmark-star" viewBox="0 0 46.354 46.354"><title>bookmark-star</title><path d="M21.57,2.049c0.303-0.612,0.927-1,1.609-1c0.682,0,1.307,0.388,1.609,1l5.771,11.695c0.261,0.529,0.767,0.896,1.352,0.981 L44.817,16.6c0.677,0.098,1.237,0.572,1.448,1.221c0.211,0.649,0.035,1.363-0.454,1.839l-9.338,9.104 c-0.423,0.412-0.616,1.006-0.517,1.588l2.204,12.855c0.114,0.674-0.161,1.354-0.715,1.756c-0.553,0.4-1.284,0.453-1.89,0.137 l-11.544-6.07c-0.522-0.275-1.147-0.275-1.67,0l-11.544,6.069c-0.604,0.317-1.337,0.265-1.89-0.136 c-0.553-0.401-0.829-1.082-0.714-1.756l2.204-12.855c0.1-0.582-0.094-1.176-0.517-1.588L0.542,19.66 c-0.489-0.477-0.665-1.19-0.454-1.839c0.211-0.649,0.772-1.123,1.449-1.221l12.908-1.875c0.584-0.085,1.09-0.452,1.351-0.982 L21.57,2.049z"/></symbol><symbol id="mark-as-favorite-star" viewBox="0 0 510 510"><title>mark-as-favorite-star</title><polygon points="255,402.212 412.59,497.25 370.897,318.011 510,197.472 326.63,181.738 255,12.75 183.371,181.738 0,197.472 139.103,318.011 97.41,497.25 "/></symbol><symbol id="bell" viewBox="0 0 32.409 32.409"><title>bell</title><path d="M27.568,20.168V13.63c-0.021-5.043-3.48-9.862-8.654-11.088c0,0-0.17-2.542-2.711-2.542c-2.58,0-2.709,2.47-2.709,2.47 C8.322,3.69,4.906,8.587,4.876,13.63v6.33c0,3.094-2.033,3.626-4.443,6.146h31.543C29.566,23.586,27.568,23.263,27.568,20.168z M16.203,32.409c2.771,0,5.088-2.212,5.713-5.043H10.492C11.117,30.197,13.435,32.409,16.203,32.409z"/></symbol></svg>
