<svg aria-hidden="true" style="position:absolute;width:0;height:0" xmlns="http://www.w3.org/2000/svg" overflow="hidden"><defs><symbol id="magnifier" viewBox="0 0 32 32"><path d="M31.763 27.84l-8.471-8.472a12.542 12.542 0 0 0 1.956-6.745C25.249 5.664 19.585 0 12.624 0S0 5.664 0 12.624c0 6.961 5.663 12.625 12.624 12.625 2.357 0 4.561-.649 6.452-1.777L27.604 32l4.159-4.16zM4.704 12.624c0-4.364 3.553-7.917 7.919-7.917 4.367 0 7.92 3.552 7.92 7.917 0 4.367-3.553 7.919-7.92 7.919-4.365 0-7.919-3.552-7.919-7.919z"/></symbol><symbol id="arrow" viewBox="0 0 32 32"><path d="M17.367 1.333l-3.796 3.771 8.235 8.235H.001v5.323h21.805l-8.235 8.235 3.796 3.771L32 16.001z"/></symbol><symbol id="menu" viewBox="0 0 32 32"><path d="M32 8H0V2.667h32V8zm0 5.333H0v5.333h32v-5.333zM32 24H0v5.333h32V24z"/></symbol></defs></svg>