<svg aria-hidden="true" style="position: absolute; width: 0; height: 0; overflow: hidden;" version="1.1" xmlns="http://www.w3.org/2000/svg" xmlns:xlink="http://www.w3.org/1999/xlink">
<defs>
<symbol id="magnifier" viewBox="0 0 32 32">
<path d="M31.763 27.84l-8.471-8.472c1.24-1.953 1.956-4.267 1.956-6.745 0.001-6.959-5.663-12.623-12.624-12.623s-12.624 5.664-12.624 12.624c0 6.961 5.663 12.625 12.624 12.625 2.357 0 4.561-0.649 6.452-1.777l8.528 8.528 4.159-4.16zM4.704 12.624c0-4.364 3.553-7.917 7.919-7.917 4.367 0 7.92 3.552 7.92 7.917 0 4.367-3.553 7.919-7.92 7.919-4.365 0-7.919-3.552-7.919-7.919z"></path>
</symbol>
<symbol id="arrow" viewBox="0 0 32 32">
<path d="M17.367 1.333l-3.796 3.771 8.235 8.235h-21.805v5.323h21.805l-8.235 8.235 3.796 3.771 14.633-14.667z"></path>
</symbol>
<symbol id="menu" viewBox="0 0 32 32">
<path d="M32 8h-32v-5.333h32v5.333zM32 13.333h-32v5.333h32v-5.333zM32 24h-32v5.333h32v-5.333z"></path>
</symbol>
</defs>
</svg>
